<?xml version="1.0" encoding="UTF-8" standalone="no"?>
<svg
   xmlns:dc="http://purl.org/dc/elements/1.1/"
   xmlns:cc="http://creativecommons.org/ns#"
   xmlns:rdf="http://www.w3.org/1999/02/22-rdf-syntax-ns#"
   xmlns:svg="http://www.w3.org/2000/svg"
   xmlns="http://www.w3.org/2000/svg"
   xmlns:sodipodi="http://sodipodi.sourceforge.net/DTD/sodipodi-0.dtd"
   xmlns:inkscape="http://www.inkscape.org/namespaces/inkscape"
   viewBox="0 0 24 24"
   version="1.1"
   id="svg6"
   sodipodi:docname="draw-ellipse-part.svg"
   inkscape:version="0.92.2 (5c3e80d, 2017-08-06)">
  <metadata
     id="metadata10">
    <rdf:RDF>
      <cc:Work
         rdf:about="">
        <dc:format>image/svg+xml</dc:format>
        <dc:type
           rdf:resource="http://purl.org/dc/dcmitype/StillImage" />
        <dc:title></dc:title>
      </cc:Work>
    </rdf:RDF>
  </metadata>
  <sodipodi:namedview
     pagecolor="#ffffff"
     bordercolor="#666666"
     borderopacity="1"
     objecttolerance="10"
     gridtolerance="10"
     guidetolerance="10"
     inkscape:pageopacity="0"
     inkscape:pageshadow="2"
     inkscape:window-width="1366"
     inkscape:window-height="722"
     id="namedview8"
     showgrid="false"
     inkscape:zoom="9.8333333"
     inkscape:cx="12"
     inkscape:cy="12"
     inkscape:window-x="0"
     inkscape:window-y="22"
     inkscape:window-maximized="1"
     inkscape:current-layer="svg6" />
  <defs
     id="defs3051">
    <style
       type="text/css"
       id="current-color-scheme">
      .ColorScheme-Text {
        color:#f2f2f2;
      }
      </style>
  </defs>
  <path
     id="path4"
     style="color:#f2f2f2;fill:currentColor;fill-opacity:1;stroke:none"
     d="m 12,6 c -4.418278,0 -8,2.6862915 -8,6 0,0.716012 0.1834762,1.396548 0.4902344,2.033203 H 5.609375 C 5.2208822,13.411395 5,12.724908 5,12 5,9.2385763 8.1340068,7 12,7 c 3.865993,0 7,2.2385763 7,5 0,0.724908 -0.220882,1.411395 -0.609375,2.033203 h 0.179687 0.392579 0.30664 c 0.120335,5.22e-4 0.184337,-7.42e-4 0.25,-0.002 C 19.824609,13.396278 20,12.713956 20,12 20,8.6862915 16.418278,6 12,6 Z m 7.349609,8.123047 c -0.01403,-0.01721 -0.05342,0.04871 -0.03711,0.04101 0.02991,-0.01409 0.01739,-0.01069 0.04297,-0.02344 -0.0019,-0.0059 -0.004,-0.0117 -0.0059,-0.01758 z M 6.5625,15.853516 c -0.099352,0.0022 -0.2463976,0.01726 -0.3828125,0.03125 -0.00525,0.0113 -0.011931,0.03267 -0.017578,0.04492 0.00303,0.02263 -0.00581,0.05264 -0.011719,0.08203 0.00327,0.0015 5.015e-4,0.0023 0.00391,0.0039 0.064621,0.03008 0.1353949,0.04382 0.203125,0.06641 0.099404,-0.0688 0.2053272,-0.130941 0.3203125,-0.1875 -0.039398,-0.0111 -0.076608,-0.02748 -0.1152344,-0.04101 z m -0.4121094,0.158203 c -0.011098,-0.0052 -0.00599,-0.005 -0.015625,-0.0098 -0.00674,0.01538 -0.01341,0.03586 -0.019531,0.04883 0.00532,0.0043 0.010292,0.0093 0.015625,0.01367 0.0056,-0.0187 0.015952,-0.03493 0.019531,-0.05273 z m -0.015625,-0.0098 c 0.0099,-0.0226 0.018299,-0.05265 0.027344,-0.07226 -0.00221,-0.01648 -0.00706,-0.03043 -0.015625,-0.04102 -0.044259,0.0043 -0.078095,0.0067 -0.1230469,0.0098 -0.02361,0.01838 -0.0013,0.04772 0.1113281,0.103515 z" />
</svg>
